<?xml version="1.0" encoding="utf-8"?>
<!-- Generator: Adobe Illustrator 23.0.5, SVG Export Plug-In . SVG Version: 6.00 Build 0)  -->
<svg version="1.1" id="Capa_1" xmlns="http://www.w3.org/2000/svg"
	xmlns:xlink="http://www.w3.org/1999/xlink" x="0px" y="0px"
	viewBox="0 0 200.82 200.82" style="enable-background:new 0 0 200.82 200.82;"
	xml:space="preserve">
<style type="text/css">
	.st0{fill:#223644;}
	.st1{fill:#223644;stroke:#FFFFFF;stroke-width:3.3738;stroke-miterlimit:10;}
	.st2{fill:#FFFFFF;}
</style>
<circle class="st0" cx="100.41" cy="100.41" r="100.41"/>
<circle class="st1" cx="100.41" cy="100.41" r="89.29"/>
<g>
	<path class="st2" d="M97.6,100.41c0-17.4-14.1-31.5-31.5-31.5c-13.28,0-24.63,8.21-29.27,19.84h12.21c3.72-5.44,9.97-9,17.06-9
		c9.81,0,18.02,6.83,20.13,15.99H34.94c-0.23,1.52-0.35,3.08-0.35,4.67c0,17.4,14.1,31.5,31.5,31.5c13.28,0,24.63-8.21,29.27-19.84
		H83.15c-3.72,5.44-9.97,9-17.06,9c-9.81,0-18.02-6.83-20.13-15.99h50.35l0,0h0.94C97.48,103.56,97.6,102,97.6,100.41z"/>
	<path class="st2" d="M103.23,100.41c0-17.4,14.1-31.5,31.5-31.5c13.28,0,24.63,8.21,29.27,19.84h-12.21c-3.72-5.44-9.97-9-17.06-9
		c-9.81,0-18.02,6.83-20.13,15.99h51.29c0.23,1.52,0.35,3.08,0.35,4.67c0,17.4-14.1,31.5-31.5,31.5c-13.28,0-24.63-8.21-29.27-19.84
		h12.21c3.72,5.44,9.97,9,17.06,9c9.81,0,18.02-6.83,20.13-15.99h-50.35l0,0h-0.94C103.35,103.56,103.23,102,103.23,100.41z"/>
</g>
</svg>